<svg width="83" height="47" viewBox="0 0 83 47" fill="none" xmlns="http://www.w3.org/2000/svg">
<mask id="mask0_12751_25031" style="mask-type:luminance" maskUnits="userSpaceOnUse" x="0" y="0" width="83" height="47">
<path d="M0 0H82.5111V47H0V0Z" fill="white"/>
</mask>
<g mask="url(#mask0_12751_25031)">
<path d="M1.04483 24.2315C0.627053 35.7204 7.3115 44.9115 19.8448 46.6871C33.4226 48.776 37.1826 39.0626 55.1471 44.3893C68.2026 48.3582 86.6893 31.9604 81.6759 16.2937C77.3937 3.34263 63.6071 2.71596 46.1648 0.627073C20.7848 -2.50626 2.08927 6.89374 1.14927 24.2315H1.04483Z" fill="#FFCD19"/>
<path d="M81.2561 21.7245C82.9272 33.0045 74.9894 44.9112 62.4561 46.0601C50.445 47.209 46.7894 38.8534 32.3761 42.509C12.2183 47.5223 1.04277 43.0312 -0.00167524 29.9756C-1.25501 13.2645 20.1561 2.29785 39.165 0.52229C65.9028 -1.87993 78.8539 6.78896 81.2561 21.7245Z" fill="#2C84FF"/>
<path d="M24.021 14.7277C26.1099 14.7277 27.5721 12.8477 30.9143 12.221L30.1832 15.7721C27.9899 16.2943 25.3788 17.861 25.3788 20.9943C25.3788 22.6655 26.9454 24.1277 29.5566 24.1277C34.7788 24.1277 38.9566 18.6966 38.9566 14.3099C38.9566 10.1321 35.1966 8.04323 30.4966 8.04323C25.7966 8.04323 21.8277 10.4455 21.8277 12.9521C21.8277 13.5788 22.4543 14.7277 24.021 14.7277ZM36.3454 15.1455C36.3454 18.9055 32.481 21.9343 29.7654 21.9343C28.721 21.9343 27.8854 21.4121 27.8854 20.4721C27.8854 19.741 28.3032 18.5921 29.7654 17.9655L29.661 19.0099C29.661 20.0543 30.2877 20.4721 30.9143 20.4721C31.4366 20.4721 31.9588 20.1588 32.3766 19.3232L32.7943 17.2343H33.1077C33.6299 17.2343 34.1521 16.921 34.1521 16.3988C34.1521 16.0855 33.8388 15.7721 33.1077 15.6677L33.9432 12.221C35.1966 12.5343 36.3454 13.3699 36.3454 15.1455ZM41.7766 21.9343C43.1343 21.9343 44.9099 20.9943 46.7899 19.6366C47.2077 20.681 47.9388 20.9943 48.8788 20.9943C52.4299 20.9943 54.7277 15.4588 55.6677 15.4588C55.8766 15.4588 56.0854 15.4588 56.0854 15.8766C56.0854 16.5032 55.5632 17.1299 55.5632 18.1743C55.5632 19.0099 56.1899 19.6366 57.1299 19.6366C59.4277 19.6366 61.9343 16.6077 61.9343 15.041C61.9343 14.5188 61.621 14.2055 61.4121 14.2055C60.5766 14.2055 59.9499 16.8166 58.3832 16.8166C57.861 16.8166 57.5477 16.6077 57.5477 15.8766C57.5477 14.8321 58.5921 13.2655 58.5921 12.1166C58.5921 11.4899 58.2788 11.281 57.7566 11.281C56.0854 11.281 52.5343 18.1743 50.0277 18.1743C49.6099 18.1743 49.1921 18.0699 48.9832 17.861C52.1166 14.9366 54.6232 11.1766 54.6232 8.04323C54.6232 6.89434 53.9966 6.47656 53.4743 6.47656C50.4454 6.47656 46.581 12.7432 46.581 17.9655C45.4762 18.9577 44.0882 19.5786 42.6121 19.741C41.7766 19.741 40.941 19.1143 40.941 18.0699L42.4032 18.1743C44.0743 18.1743 45.3277 17.0255 45.3277 15.4588C45.3277 14.4143 44.4921 13.6832 43.2388 13.6832C41.6721 13.6832 38.8521 15.3543 38.8521 18.9055C38.8521 20.5766 39.8966 21.9343 41.7766 21.9343ZM52.0121 9.6099C52.3254 9.6099 52.3254 9.92323 52.3254 10.1321C52.3254 11.3855 50.7588 13.9966 48.6699 16.0855C48.8788 13.4743 50.9677 9.6099 52.0121 9.6099ZM43.0299 15.6677C43.4477 15.6677 43.6566 15.8766 43.6566 16.0855C43.6566 16.5032 43.3432 17.0255 42.2988 17.0255L41.2543 16.921C41.6721 16.1899 42.2988 15.6677 43.0299 15.6677ZM59.2188 9.92323C59.741 9.92323 60.2632 9.50545 60.2632 8.87878C60.2632 8.25212 59.741 7.83434 59.2188 7.83434C58.9418 7.83434 58.6761 7.94438 58.4802 8.14025C58.2844 8.33612 58.1743 8.60178 58.1743 8.87878C58.1743 9.50545 58.5921 9.92323 59.2188 9.92323ZM22.5588 28.5143C18.7988 29.2455 17.7543 29.2455 17.7543 30.2899C17.7543 30.6032 17.9632 31.1255 18.6943 31.1255C19.321 31.1255 20.9921 30.4988 21.5143 30.4988C21.8277 30.4988 21.9321 30.7077 21.9321 30.9166C21.9321 32.2743 20.1566 34.0499 17.7543 34.0499C16.6463 34.0499 15.5837 33.6097 14.8002 32.8263C14.0167 32.0428 13.5766 30.9801 13.5766 29.8721C13.5766 27.5743 15.2477 25.2766 18.2766 25.2766C19.9477 25.2766 20.6788 25.9032 21.8277 25.9032C22.9766 25.9032 23.9166 25.381 23.9166 23.8143C23.9166 22.2477 22.0366 20.3677 18.2766 20.3677C12.0099 20.3677 9.08545 25.2766 9.08545 29.7677C9.08545 34.3632 12.4277 37.8099 17.2321 37.8099C22.141 37.8099 24.7521 33.841 24.7521 30.1855C24.7521 28.4099 23.7077 28.0966 22.6632 28.4099L22.5588 28.5143ZM35.5099 24.1277C34.7897 24.1277 34.099 24.4138 33.5897 24.923C33.0804 25.4323 32.7943 26.123 32.7943 26.8432C32.7943 28.0966 33.9432 29.141 35.1966 29.141C35.8232 29.141 36.241 28.8277 36.241 28.4099C36.241 27.8877 35.1966 28.3055 35.1966 27.3655C35.1966 26.9477 35.4055 26.6343 35.9277 26.6343C36.3454 26.6343 36.9721 26.9477 36.9721 27.9921C36.9721 29.2455 36.0321 31.5432 34.6743 31.5432C33.0032 31.5432 34.1521 28.9321 33.0032 28.9321C32.0632 28.9321 31.541 32.5877 29.3477 32.5877C28.8254 32.5877 28.6166 32.1699 28.6166 31.7521C28.6166 29.9766 31.2277 28.6188 31.2277 27.1566C31.2277 26.8432 30.9143 26.321 30.2877 26.321C29.5566 26.321 29.3477 26.8432 28.3032 26.8432C26.4232 26.8432 26.841 24.5455 25.4832 24.5455C24.961 24.5455 24.4388 25.1721 24.4388 26.2166C24.4388 27.261 25.1699 28.4099 26.5277 28.4099L28.0943 28.201C28.3032 28.201 28.5121 28.4099 28.5121 28.7232C28.5121 29.8721 26.0054 31.021 26.0054 33.4232C26.0054 34.3632 26.841 35.1988 28.0943 35.1988C30.601 35.1988 31.6455 32.1699 32.2721 32.1699C32.7943 32.1699 32.481 34.0499 34.361 34.0499C36.241 34.0499 38.3299 30.8121 38.3299 27.1566C38.3299 25.4855 37.2854 24.1277 35.5099 24.1277ZM42.6121 26.321L43.8654 26.4255C44.8054 26.4255 45.5366 25.7988 45.5366 24.8588C45.5366 24.1277 45.0143 23.501 43.8654 23.501C41.7766 23.501 38.8521 25.381 38.8521 28.5143C38.8521 31.6477 40.8366 32.6921 42.9254 32.6921C44.3877 32.6921 45.5366 31.6477 45.5366 30.2899C45.5366 29.7677 45.2232 29.2455 44.3877 29.2455C43.4477 29.2455 43.2388 30.081 42.2988 30.081C41.3588 30.081 40.7321 29.5588 40.7321 28.5143C40.7321 26.9477 41.7766 26.321 42.6121 26.321Z" fill="white"/>
<path d="M73.3189 25.9045C73.3189 24.7556 72.6923 23.7111 71.9612 23.7111C70.9167 23.7111 71.8567 25.8 69.4545 28.0978C68.4101 29.1422 67.1567 29.9778 65.6945 30.7089C66.1123 29.56 66.4256 28.4111 66.9478 27.3667C68.5145 23.6067 69.8723 21.9356 69.8723 20.5778C69.8723 20.0556 69.5589 19.8467 69.0367 19.8467C66.8434 19.8467 65.6945 26.9489 63.1878 26.9489C62.5612 26.9489 62.1434 26.5311 62.1434 25.9045C62.1434 24.5467 64.0234 22.3533 64.0234 21.2045C64.0234 20.7867 63.8145 20.4733 63.2923 20.4733C61.2034 20.4733 59.9501 27.7845 57.4434 27.7845C57.1301 27.7845 56.9212 27.5756 56.9212 27.2622C56.9212 26.3222 58.8012 24.1289 58.8012 22.98C58.8012 22.5622 58.4878 22.1445 57.7567 22.1445C57.0256 22.1445 56.3989 22.5622 55.4589 22.7711V21.9356C55.4589 20.4733 54.6234 19.8467 53.5789 19.8467C52.6389 19.8467 51.49 20.4733 51.49 21.9356C51.49 23.2933 52.8478 24.0245 53.8923 24.0245C53.37 26.74 51.4901 29.4556 49.2967 29.4556C48.6701 29.4556 48.1478 29.0378 47.9389 28.0978C49.8189 28.3067 51.5945 26.9489 51.5945 24.86C51.5945 23.5022 50.7589 22.7711 49.4012 22.7711C47.73 22.7711 45.7456 24.6511 45.7456 27.68C45.7456 29.56 46.4767 31.7533 48.8789 31.7533C52.0123 31.7533 54.5189 27.5756 55.2501 24.0245H55.4589C56.19 24.0245 56.5034 24.3378 56.5034 24.6511C56.5034 26.1133 54.4145 26.9489 54.4145 29.0378C54.4145 29.6645 54.7278 30.8133 56.0856 30.8133C57.3389 30.8133 58.6967 29.7689 59.9501 27.5756C59.9501 27.4711 60.0545 27.5756 60.0545 27.5756C60.0545 29.0378 60.6812 29.8733 61.83 29.8733C62.8745 29.8733 63.6056 28.9333 64.1278 28.3067C63.6998 29.5458 63.3166 30.7999 62.9789 32.0667C59.5323 33.6333 56.3989 35.2 56.3989 38.6467C56.3989 40.3178 57.6523 41.2578 58.8012 41.2578C62.2478 41.2578 63.6056 37.6022 64.8589 33.4245C67.2612 32.4845 69.8723 31.5445 71.6478 29.7689C72.171 29.2749 72.5817 28.6741 72.852 28.0073C73.1223 27.3405 73.246 26.6233 73.2145 25.9045H73.3189ZM49.2967 24.86C49.7145 24.86 49.9234 25.0689 49.9234 25.3822C49.9234 26.1133 49.0878 26.8445 48.2523 26.8445H47.8345C47.9389 25.9045 48.5656 24.86 49.4012 24.86H49.2967ZM53.0567 21.9356C53.0567 21.5178 53.2656 21.3089 53.5789 21.3089C53.8923 21.3089 54.1012 21.6222 54.1012 22.3533V22.98C53.8242 22.98 53.5585 22.87 53.3626 22.6741C53.1668 22.4782 53.0567 22.2126 53.0567 21.9356ZM59.5323 38.8556C59.1145 38.8556 58.6967 38.5422 58.6967 37.9156C58.6967 36.3489 60.1589 35.3045 62.2478 34.4689C61.7256 36.5578 60.8901 38.8556 59.5323 38.8556Z" fill="white"/>
</g>
</svg>
